<svg width="80" height="80" xmlns="http://www.w3.org/2000/svg">

 <g>
  <title>background</title>
  <rect fill="none" id="canvas_background" height="402" width="582" y="-1" x="-1"/>
 </g>
 <g>
  <title>Layer 1</title>
  <g id="svg_1">
   <path id="svg_2" fill="#66798F" d="m58,67.143l12,0c1.105,0 2,0.895 2,2l0,6.857c0,1.105 -0.895,2 -2,2l-12,0c-1.105,0 -2,-0.895 -2,-2l0,-6.857c0,-1.105 0.896,-2 2,-2z"/>
  </g>
  <g id="svg_3">
   <path id="svg_4" fill="#66798F" d="m10,67.143l12,0c1.105,0 2,0.895 2,2l0,6.857c0,1.105 -0.895,2 -2,2l-12,0c-1.105,0 -2,-0.895 -2,-2l0,-6.857c0,-1.105 0.895,-2 2,-2z"/>
  </g>
  <g id="svg_5">
   <path id="svg_6" fill="#BAE0BD" d="m8.5,71.5l0,-62.5c0,-3.584 2.916,-6.5 6.5,-6.5l50,0c3.584,0 6.5,2.916 6.5,6.5l0,62.5l-63,0z"/>
   <g id="svg_7">
    <path id="svg_8" fill="#5E9C76" d="m65,3c3.308,0 6,2.692 6,6l0,62l-62,0l0,-62c0,-3.308 2.692,-6 6,-6l50,0m0,-1l-50,0c-3.866,0 -7,3.134 -7,7l0,63l64,0l0,-63c0,-3.866 -3.134,-7 -7,-7l0,0z"/>
   </g>
  </g>
  <g id="svg_9">
   <rect id="svg_10" fill="#C2E8FF" height="30" width="63" y="16.5" x="8.5"/>
   <g id="svg_11">
    <path id="svg_12" fill="#5E9C76" d="m71,17l0,29l-62,0l0,-29l62,0m1,-1l-64,0l0,31l64,0l0,-31l0,0z"/>
   </g>
  </g>
  <g id="svg_13">
   <path id="svg_14" fill="#BAE0BD" d="m71.5,41.5l0,-12l4.5,0c0.827,0 1.5,0.673 1.5,1.5l0,9c0,0.827 -0.673,1.5 -1.5,1.5l-4.5,0z"/>
   <g id="svg_15">
    <path id="svg_16" fill="#5E9C76" d="m76,30c0.551,0 1,0.449 1,1l0,9c0,0.551 -0.449,1 -1,1l-4,0l0,-11l4,0m0,-1l-5,0l0,13l5,0c1.105,0 2,-0.895 2,-2l0,-9c0,-1.105 -0.895,-2 -2,-2l0,0z"/>
   </g>
  </g>
  <g id="svg_17">
   <path id="svg_18" fill="#BAE0BD" d="m4,41.5c-0.827,0 -1.5,-0.673 -1.5,-1.5l0,-9c0,-0.827 0.673,-1.5 1.5,-1.5l4.5,0l0,12l-4.5,0z"/>
   <g id="svg_19">
    <path id="svg_20" fill="#5E9C76" d="m8,30l0,11l-4,0c-0.551,0 -1,-0.449 -1,-1l0,-9c0,-0.551 0.449,-1 1,-1l4,0m1,-1l-5,0c-1.105,0 -2,0.895 -2,2l0,9c0,1.105 0.895,2 2,2l5,0l0,-13l0,0z"/>
   </g>
  </g>
  <rect id="svg_21" fill="#FFEEA3" height="4" width="32" y="8" x="24"/>
  <rect id="svg_22" fill="#FFFFFF" height="6" width="10" y="60" x="56"/>
  <rect id="svg_23" fill="#FFFFFF" height="6" width="10" y="60" x="14"/>
 </g>
</svg>